<svg xmlns="http://www.w3.org/2000/svg" viewBox="0 0 500 500"><g id="freepik--speech-bubble--inject-252"><path d="M264.75,59.34V87.86c-6.47,6.35-29.85,29.93-29.85,29.93h29.85v22.45a14.49,14.49,0,0,0,14.35,14.48l165.48,1.56a14.47,14.47,0,0,0,14.61-14.48V59.34a14.48,14.48,0,0,0-14.48-14.48H279.23A14.48,14.48,0,0,0,264.75,59.34Z" style="fill:#fafafa"></path><path d="M264.75,59.34s0-.55.06-1.62a14.69,14.69,0,0,1,1.28-4.58,14.45,14.45,0,0,1,1.84-3,15.57,15.57,0,0,1,3.12-2.88,14.65,14.65,0,0,1,4.5-2.05,20.3,20.3,0,0,1,5.6-.5l67.24-.1,46.43,0,25.87,0H444.6c.59,0,1.19,0,1.78.1a13.38,13.38,0,0,1,1.77.31,14.76,14.76,0,0,1,10.43,9.27,15.07,15.07,0,0,1,.85,3.58c.08,1.24.08,2.45.07,3.67q0,3.65,0,7.33V98.88q0,15.32,0,31.15V142a15.29,15.29,0,0,1-.6,4,14.71,14.71,0,0,1-4.36,6.85,13.65,13.65,0,0,1-3.42,2.29,14.62,14.62,0,0,1-3.94,1.26,20.55,20.55,0,0,1-3.91.2l-3.85,0-7.68-.08-15.2-.14-29.75-.29-56.41-.55-51.3-.51a14.77,14.77,0,0,1-10.74-4.82,15,15,0,0,1-3.86-10.71q0-11.27,0-21.67l.24.24-29.85,0h-.49l.35-.35,29.9-29.89,0,.1c0-9.26.05-16.39.06-21.21,0-2.4,0-4.22,0-5.46s0-1.85,0-1.85,0,.62,0,1.85,0,3.06,0,5.46c0,4.82,0,11.95.07,21.21v0l0,0-29.8,30-.15-.35,29.85,0H265v.24q0,10.39,0,21.67a14.47,14.47,0,0,0,3.74,10.35,14.23,14.23,0,0,0,10.35,4.63l51.3.46,56.4.51,29.76.28,15.2.14,7.67.07,3.86,0a19.18,19.18,0,0,0,3.8-.2,14.22,14.22,0,0,0,11.19-9.93,14.43,14.43,0,0,0,.58-3.86c0-1.33,0-2.66,0-4V98.88q0-15.31,0-30.06,0-3.69,0-7.33c0-1.22,0-2.43-.08-3.6a15,15,0,0,0-.8-3.44,14.17,14.17,0,0,0-10-8.89c-2.23-.59-4.57-.36-6.89-.41h-46.3l-46.43,0L281.15,45a19.83,19.83,0,0,0-5.55.47,14.43,14.43,0,0,0-4.44,2,15.23,15.23,0,0,0-3.1,2.82,14.05,14.05,0,0,0-1.85,2.94A15.4,15.4,0,0,0,264.75,59.34Z" style="fill:#263238"></path><path d="M317.31,124.67H314v4.41h-1.73v-4.41h-9.46v-1.25l8.89-11.11h1.92L305,123.14h7.28v-3.88H314v3.88h3.35Z"></path><path d="M318.89,120.69c0-5.34,2.8-8.52,6.68-8.52s6.71,3.18,6.71,8.52-2.83,8.53-6.71,8.53S318.89,126,318.89,120.69Zm11.62,0c0-4.48-2-6.94-4.94-6.94s-4.93,2.46-4.93,6.94,2,7,4.93,7S330.51,125.17,330.51,120.69Z"></path><path d="M349,124.67h-3.35v4.41h-1.72v-4.41h-9.47v-1.25l8.89-11.11h1.92l-8.58,10.83H344v-3.88h1.68v3.88H349Z"></path><path d="M370.32,127.54v1.54H358.46V112.31H370v1.53h-9.73v6h8.67v1.51h-8.67v6.22Z"></path><path d="M380.47,116.38V118l-.41,0c-2.63,0-4.24,1.68-4.24,4.65v6.42h-1.7v-12.6h1.63v2.46C376.54,117.27,378.14,116.38,380.47,116.38Z"></path><path d="M389.88,116.38V118l-.41,0c-2.63,0-4.24,1.68-4.24,4.65v6.42h-1.7v-12.6h1.63v2.46C386,117.27,387.56,116.38,389.88,116.38Z"></path><path d="M391.55,122.78A6.41,6.41,0,1,1,398,129.2,6.2,6.2,0,0,1,391.55,122.78Zm11.09,0a4.69,4.69,0,1,0-4.67,4.91A4.59,4.59,0,0,0,402.64,122.78Z"></path><path d="M414.19,116.38V118l-.41,0c-2.64,0-4.24,1.68-4.24,4.65v6.42h-1.7v-12.6h1.63v2.46C410.26,117.27,411.86,116.38,414.19,116.38Z"></path><path d="M303.91,84.5c0-7.87,6.13-13.7,14.49-13.7s14.5,5.79,14.5,13.7-6.17,13.7-14.5,13.7S303.91,92.37,303.91,84.5Zm22.78,0A8.29,8.29,0,1,0,318.4,93,8.09,8.09,0,0,0,326.69,84.5Z"></path><path d="M335.58,87.56c0-6.13,4.73-10.48,11.2-10.48s11.16,4.35,11.16,10.48S353.25,98,346.78,98,335.58,93.69,335.58,87.56Zm16.38,0c0-3.51-2.23-5.63-5.18-5.63s-5.23,2.12-5.23,5.63,2.27,5.64,5.23,5.64S352,91.08,352,87.56Z"></path><path d="M384,87.56C384,94,379.61,98,373.9,98a7.92,7.92,0,0,1-6.13-2.45v9.49h-5.9V77.39h5.64v2.34a7.89,7.89,0,0,1,6.39-2.65C379.61,77.08,384,81.17,384,87.56Zm-6,0c0-3.51-2.23-5.63-5.18-5.63s-5.18,2.12-5.18,5.63,2.23,5.64,5.18,5.64S378.06,91.08,378.06,87.56Z"></path><path d="M386,95.85l2-4.24a13.88,13.88,0,0,0,7.08,2c2.72,0,3.74-.72,3.74-1.85,0-3.33-12.29.07-12.29-8.06,0-3.86,3.48-6.59,9.42-6.59a16.79,16.79,0,0,1,7.83,1.78l-2,4.2a11.72,11.72,0,0,0-5.86-1.51c-2.65,0-3.79.83-3.79,1.89,0,3.48,12.3.11,12.3,8.13,0,3.79-3.52,6.47-9.61,6.47A17.51,17.51,0,0,1,386,95.85Z"></path><path d="M407.19,94.6a3.64,3.64,0,0,1,7.26,0,3.64,3.64,0,0,1-7.26,0Zm.11-23.34h7l-1.17,17.29h-4.69Z"></path></g><g id="freepik--Robot--inject-252"><path d="M175.84,45.12h1.32a13.95,13.95,0,0,1,13.95,13.95v3.77a13.95,13.95,0,0,1-13.95,13.95h-1.32a0,0,0,0,1,0,0V45.12A0,0,0,0,1,175.84,45.12Z" transform="translate(10.33 146.97) rotate(-44.79)" style="fill:#455a64"></path><path d="M189.22,77.6h0l-22.33-22.5h0l.93-.93a13.9,13.9,0,0,1,9.85-4.06h.05a13.91,13.91,0,0,1,9.87,4.12l2.66,2.68a14,14,0,0,1-.07,19.77ZM166.94,55.09l22.28,22.44.92-.91a13.93,13.93,0,0,0,.07-19.69l-2.66-2.68a13.81,13.81,0,0,0-9.83-4.11h-.05a13.83,13.83,0,0,0-9.81,4Z" style="fill:#263238"></path><path d="M97.86,121.34h1.32a13.95,13.95,0,0,1,13.95,13.95v3.77a14,14,0,0,1-14,14H97.86a0,0,0,0,1,0,0V121.34A0,0,0,0,1,97.86,121.34Z" transform="translate(276.05 166.43) rotate(137.3)" style="fill:#455a64"></path><path d="M111.43,148.25h-.58a13.91,13.91,0,0,1-9.71-4.48L98.59,141a14,14,0,0,1,.79-19.75l1-.91,0,0,21.49,23.29,0,0-1,.9A13.86,13.86,0,0,1,111.43,148.25Zm-12-27A13.93,13.93,0,0,0,98.62,141l2.56,2.77a13.85,13.85,0,0,0,9.68,4.47h.57a13.83,13.83,0,0,0,9.43-3.69l1-.88-21.44-23.24Z" style="fill:#263238"></path><rect x="93.19" y="89.53" width="2.5" height="20.69" transform="translate(-42.59 110.68) rotate(-51.11)" style="fill:#455a64"></rect><path d="M88.22,88.3a5.1,5.1,0,1,1-7.17.77A5.12,5.12,0,0,1,88.22,88.3Z" style="fill:#263238"></path><rect x="102.48" y="70.93" width="99.18" height="74.84" rx="16.5" transform="translate(-32.18 138.62) rotate(-44.8)" style="fill:#FF725E"></rect><polygon points="150.5 57.18 148.29 48.75 142.54 49.7 140.88 43.61 142.76 43.18 144.07 47.61 149.81 46.83 152.21 55.48 150.5 57.18" style="fill:#455a64"></polygon><rect x="101.79" y="85.29" width="85.13" height="30.57" rx="13.96" transform="translate(-28.95 130.92) rotate(-44.8)" style="fill:#263238"></rect><path d="M177.66,95s.12-.16.37-.45a14.86,14.86,0,0,0,1.1-1.33,16.84,16.84,0,0,0,2.93-5.87,18.94,18.94,0,0,0,.67-4.7,18.57,18.57,0,0,0-.9-5.56,17.22,17.22,0,0,0-3.12-5.65l-1.18-1.3-1.28-1.28a26.54,26.54,0,0,0-2.76-2.52A17.67,17.67,0,0,0,166.27,63a17.88,17.88,0,0,0-8.56.5,17.5,17.5,0,0,0-4.12,1.92,21.42,21.42,0,0,0-3.62,3l-7.05,7-31.43,31.23a17.41,17.41,0,0,0-5,10.11,18.06,18.06,0,0,0,.18,5.59,17.88,17.88,0,0,0,3.44,7.41c.59.69,1.17,1.36,1.83,2a30.29,30.29,0,0,0,3.94,3.62,17.35,17.35,0,0,0,19,.87,18.61,18.61,0,0,0,2-1.33c.6-.51,1.19-1,1.74-1.57l3.29-3.25,12-11.85,17.37-17.13L176,96.55l1.24-1.2c.28-.26.44-.39.44-.39s-.13.15-.4.43l-1.21,1.24-4.67,4.7-17.26,17.25-11.93,11.9-3.27,3.26c-.56.55-1.17,1.08-1.77,1.6a19.85,19.85,0,0,1-2,1.38,17.84,17.84,0,0,1-19.52-.86,32.38,32.38,0,0,1-4-3.67c-.65-.63-1.26-1.34-1.87-2a20.56,20.56,0,0,1-1.56-2.33,17.65,17.65,0,0,1-2-5.3,18.52,18.52,0,0,1-.19-5.76,17.85,17.85,0,0,1,5.11-10.4l31.46-31.21,7.07-7a22,22,0,0,1,3.7-3.07,17.72,17.72,0,0,1,20.36.93,26.56,26.56,0,0,1,2.79,2.57l1.27,1.29L179,71.18A17.6,17.6,0,0,1,182.11,77a18.15,18.15,0,0,1,.86,5.65,19.29,19.29,0,0,1-.71,4.76,16.84,16.84,0,0,1-3,5.88,12.48,12.48,0,0,1-1.15,1.29Z" style="fill:#263238"></path><path d="M125.76,126.43a78.3,78.3,0,0,1-.39-9,75.7,75.7,0,0,1,.14-9,80.3,80.3,0,0,1,.38,9A79.51,79.51,0,0,1,125.76,126.43Z" style="fill:#fff"></path><path d="M134.47,116.72a74.85,74.85,0,0,1-9,.67,81.18,81.18,0,0,1-9,.15,75.16,75.16,0,0,1,9-.67A81,81,0,0,1,134.47,116.72Z" style="fill:#fff"></path><path d="M161.4,90.11a78.76,78.76,0,0,1-.39-9,75.37,75.37,0,0,1,.14-9,80.3,80.3,0,0,1,.38,9A79.51,79.51,0,0,1,161.4,90.11Z" style="fill:#fff"></path><path d="M170.11,80.4a80.16,80.16,0,0,1-9,.67,76.89,76.89,0,0,1-9,.14,79.21,79.21,0,0,1,9-.66A78.18,78.18,0,0,1,170.11,80.4Z" style="fill:#fff"></path><circle cx="140.64" cy="39.98" r="5.1" transform="translate(-0.6 2.18) rotate(-0.89)" style="fill:#263238"></circle><path d="M156.51,156.68a5.09,5.09,0,0,1-.88-.73c-.55-.49-1.32-1.22-2.27-2.12-1.89-1.8-4.49-4.33-7.32-7.14s-5.38-5.38-7.2-7.27a22.26,22.26,0,0,1-2.81-3.18,11.05,11.05,0,0,1,.84.77l2.23,2.15c2,1.91,4.5,4.41,7.3,7.16s5.39,5.38,7.22,7.25l2.15,2.24A4.71,4.71,0,0,1,156.51,156.68Z" style="fill:#263238"></path><path d="M199.82,113.05a4.79,4.79,0,0,1-.88-.73c-.54-.49-1.31-1.21-2.26-2.11-1.9-1.81-4.49-4.33-7.33-7.14s-5.38-5.39-7.19-7.28a22.6,22.6,0,0,1-2.81-3.17,7.79,7.79,0,0,1,.84.76l2.23,2.15,7.3,7.17c2.84,2.81,5.39,5.37,7.22,7.24l2.15,2.24A4.24,4.24,0,0,1,199.82,113.05Z" style="fill:#263238"></path><rect x="136.8" y="116.58" width="52.15" height="5.72" transform="translate(-36.5 151.76) rotate(-45.46)" style="fill:#263238"></rect><path d="M137.6,142.82a1.1,1.1,0,1,1-1-1.13A1.09,1.09,0,0,1,137.6,142.82Z" style="fill:#263238"></path><path d="M145.94,151.63a1.1,1.1,0,0,1-2.19-.09,1.1,1.1,0,0,1,2.19.09Z" style="fill:#263238"></path><path d="M186.62,92.91a1.1,1.1,0,0,1-1.14,1,1.1,1.1,0,1,1,.09-2.19A1.08,1.08,0,0,1,186.62,92.91Z" style="fill:#263238"></path><path d="M195,101.72a1.09,1.09,0,1,1-2.18-.09,1.09,1.09,0,1,1,2.18.09Z" style="fill:#263238"></path><path d="M105.45,144a27.16,27.16,0,0,0-2.31-2.05c-.75-.59-1.7-1.23-2.67-2.09a10.37,10.37,0,0,1-2.54-3.34,11.3,11.3,0,0,1-.79-7.48,8.89,8.89,0,0,1,.82-2.15c.28-.47.44-.72.47-.7a22.92,22.92,0,0,0-.93,2.93,11.54,11.54,0,0,0,.9,7.17c1.2,2.66,3.53,4.12,5,5.37A7,7,0,0,1,105.45,144Z" style="fill:#fff"></path><path d="M148.92,63.53c.1.1-10.41,10.48-23.47,23.17s-23.75,22.91-23.85,22.81S112,99,125.08,86.33,148.82,63.43,148.92,63.53Z" style="fill:#fff"></path><path d="M83.92,95.87c0,.06-.52,0-1.19-.45a4.1,4.1,0,0,1-1.2-5.6c.44-.69.88-.95.92-.9s-.28.41-.59,1.07a4.45,4.45,0,0,0-.36,2.76A4.4,4.4,0,0,0,83,95.13C83.51,95.61,84,95.79,83.92,95.87Z" style="fill:#fff"></path><path d="M139.46,43.69c0,.06-.57,0-1.28-.51a4.16,4.16,0,0,1-.78-6c.56-.67,1.08-.88,1.11-.83s-.37.38-.81,1a4.18,4.18,0,0,0,.71,5.55C139,43.42,139.49,43.61,139.46,43.69Z" style="fill:#fff"></path><path d="M177.32,51.71a22.58,22.58,0,0,0-4.11.94,23.1,23.1,0,0,0-3.63,2.13A6.58,6.58,0,0,1,173,52.16,6.69,6.69,0,0,1,177.32,51.71Z" style="fill:#fff"></path><path d="M135.81,158.46a103.24,103.24,0,0,1-7.47-7.35c-4-4.16-7.19-7.61-7.08-7.71s3.44,3.19,7.46,7.35S135.91,158.36,135.81,158.46Z" style="fill:#fff"></path><rect x="208.44" y="398.62" width="42.79" height="60.65" style="fill:#FF725E"></rect><path d="M208.77,458.23h42.14a5.7,5.7,0,0,1,5.7,5.7v.54a0,0,0,0,1,0,0H203.06a0,0,0,0,1,0,0v-.54A5.7,5.7,0,0,1,208.77,458.23Z" style="fill:#263238"></path><rect x="198.18" y="464.47" width="64.99" height="9.88" style="fill:#FF725E"></rect><path d="M251,452.61c0,.14-9.48.26-21.18.26s-21.19-.12-21.19-.26,9.48-.26,21.19-.26S251,452.46,251,452.61Z" style="fill:#263238"></path><path d="M251,445.39c0,.15-9.48.26-21.18.26s-21.19-.11-21.19-.26,9.48-.26,21.19-.26S251,445.25,251,445.39Z" style="fill:#263238"></path><path d="M251,438.31c0,.14-9.48.26-21.18.26s-21.19-.12-21.19-.26,9.48-.26,21.19-.26S251,438.17,251,438.31Z" style="fill:#263238"></path><path d="M251,431.1c0,.14-9.48.26-21.18.26s-21.19-.12-21.19-.26,9.48-.26,21.19-.26S251,431,251,431.1Z" style="fill:#263238"></path><path d="M251,424c0,.15-9.48.26-21.18.26s-21.19-.11-21.19-.26,9.48-.26,21.19-.26S251,423.87,251,424Z" style="fill:#263238"></path><path d="M251,416.8c0,.15-9.48.26-21.18.26s-21.19-.11-21.19-.26,9.48-.26,21.19-.26S251,416.66,251,416.8Z" style="fill:#263238"></path><path d="M251,409.72c0,.14-9.48.26-21.18.26s-21.19-.12-21.19-.26,9.48-.26,21.19-.26S251,409.57,251,409.72Z" style="fill:#263238"></path><path d="M251,402.51c0,.14-9.48.26-21.18.26s-21.19-.12-21.19-.26,9.48-.26,21.19-.26S251,402.36,251,402.51Z" style="fill:#263238"></path><g style="opacity:0.30000000000000004"><polygon points="208.44 407.07 251.02 405.89 251.02 399.71 208.06 399.71 208.44 407.07"></polygon></g><rect x="275.46" y="398.62" width="42.79" height="60.65" style="fill:#FF725E"></rect><path d="M275.79,458.23h42.14a5.7,5.7,0,0,1,5.7,5.7v.54a0,0,0,0,1,0,0H270.08a0,0,0,0,1,0,0v-.54A5.7,5.7,0,0,1,275.79,458.23Z" style="fill:#263238"></path><rect x="265.2" y="464.47" width="64.99" height="9.88" style="fill:#FF725E"></rect><path d="M318,452.61c0,.14-9.48.26-21.18.26s-21.19-.12-21.19-.26,9.48-.26,21.19-.26S318,452.46,318,452.61Z" style="fill:#263238"></path><path d="M318,445.39c0,.15-9.48.26-21.18.26s-21.19-.11-21.19-.26,9.48-.26,21.19-.26S318,445.25,318,445.39Z" style="fill:#263238"></path><path d="M318,438.31c0,.14-9.48.26-21.18.26s-21.19-.12-21.19-.26,9.48-.26,21.19-.26S318,438.17,318,438.31Z" style="fill:#263238"></path><path d="M318,431.1c0,.14-9.48.26-21.18.26s-21.19-.12-21.19-.26,9.48-.26,21.19-.26S318,431,318,431.1Z" style="fill:#263238"></path><path d="M318,424c0,.15-9.48.26-21.18.26s-21.19-.11-21.19-.26,9.48-.26,21.19-.26S318,423.87,318,424Z" style="fill:#263238"></path><path d="M318,416.8c0,.15-9.48.26-21.18.26s-21.19-.11-21.19-.26,9.48-.26,21.19-.26S318,416.66,318,416.8Z" style="fill:#263238"></path><path d="M318,409.72c0,.14-9.48.26-21.18.26s-21.19-.12-21.19-.26,9.48-.26,21.19-.26S318,409.57,318,409.72Z" style="fill:#263238"></path><path d="M318,402.51c0,.14-9.48.26-21.18.26s-21.19-.12-21.19-.26,9.48-.26,21.19-.26S318,402.36,318,402.51Z" style="fill:#263238"></path><g style="opacity:0.30000000000000004"><polygon points="275.46 407.07 318.04 405.89 318.04 399.71 275.08 399.71 275.46 407.07"></polygon></g><path d="M328.17,223.65h4.32a1.83,1.83,0,0,1,1.83,1.83v17.68a0,0,0,0,1,0,0h-8a0,0,0,0,1,0,0V225.49a1.83,1.83,0,0,1,1.83-1.83Z" transform="translate(23.16 496.55) rotate(-75.83)" style="fill:#FF725E"></path><g style="opacity:0.30000000000000004"><path d="M328.17,223.65h4.32a1.83,1.83,0,0,1,1.83,1.83v17.68a0,0,0,0,1,0,0h-8a0,0,0,0,1,0,0V225.49a1.83,1.83,0,0,1,1.83-1.83Z" transform="translate(23.16 496.55) rotate(-75.83)"></path></g><path d="M323.82,237.7h5.94a3,3,0,0,1,3,3v16.47a0,0,0,0,1,0,0h-12a0,0,0,0,1,0,0V240.74A3,3,0,0,1,323.82,237.7Z" transform="translate(6.87 503.72) rotate(-75.83)" style="fill:#FF725E"></path><rect x="324.34" y="237.02" width="20.39" height="7.7" transform="translate(19.11 506.26) rotate(-75.83)" style="fill:#FF725E"></rect><path d="M345.68,310.42s31.95-1.3,29.31-31.92c-2-23.45-36.91-23.66-36.91-23.66L347,235.35s40.76,3.55,48.81,33.23c9.09,33.54-11.93,60.89-50.13,60.25Z" style="fill:#FF725E"></path><rect x="334.32" y="230.94" width="12.44" height="27.68" transform="translate(60.85 -67.72) rotate(12.46)" style="fill:#263238"></rect><path d="M344.16,256.78c0,.23-2.76-.24-6.05-1a35.59,35.59,0,0,1-5.91-1.64,37.84,37.84,0,0,1,6,1.13c1.65.38,3.14.74,4.21,1l1.27.34A2.12,2.12,0,0,1,344.16,256.78Z" style="fill:#455a64"></path><path d="M345.23,251.91c0,.23-2.75-.24-6.05-1a34.18,34.18,0,0,1-5.9-1.64,38.26,38.26,0,0,1,6,1.13c1.65.38,3.13.74,4.21,1l1.26.34A1.7,1.7,0,0,1,345.23,251.91Z" style="fill:#455a64"></path><path d="M346.52,247c0,.24-2.76-.23-6-1a35.59,35.59,0,0,1-5.91-1.64,38.05,38.05,0,0,1,6,1.13c1.64.37,3.13.73,4.2,1l1.27.33Z" style="fill:#455a64"></path><path d="M347.38,242.18c0,.23-2.75-.24-6-1a34.47,34.47,0,0,1-5.91-1.64,38,38,0,0,1,6,1.13c1.65.38,3.13.74,4.21,1l1.26.34A1.7,1.7,0,0,1,347.38,242.18Z" style="fill:#455a64"></path><path d="M348.63,237.62c0,.24-2.75-.23-6-1a35.59,35.59,0,0,1-5.91-1.64,38,38,0,0,1,6,1.13c1.65.37,3.14.73,4.21,1l1.27.33A3.68,3.68,0,0,1,348.63,237.62Z" style="fill:#455a64"></path><path d="M352.66,328.63a14.23,14.23,0,0,1-.65-2.7c-.32-1.68-.7-4-1-6.61s-.45-5-.51-6.67a13.76,13.76,0,0,1,0-2.78,14.56,14.56,0,0,1,.34,2.75c.15,1.7.36,4.05.66,6.64s.61,4.92.84,6.61A15.65,15.65,0,0,1,352.66,328.63Z" style="fill:#263238"></path><path d="M362.59,327.08a93.17,93.17,0,0,1-2.91-9.54,95,95,0,0,1-2.41-9.69,96,96,0,0,1,2.91,9.55A97.71,97.71,0,0,1,362.59,327.08Z" style="fill:#263238"></path><path d="M375.94,322.3a18.68,18.68,0,0,1-1.71-2.65c-1.08-1.8-2.41-4-3.89-6.52l-3.92-6.5a20.32,20.32,0,0,1-1.54-2.75,17.48,17.48,0,0,1,1.85,2.55c1.08,1.62,2.53,3.89,4,6.43s2.85,4.89,3.77,6.61A18.81,18.81,0,0,1,375.94,322.3Z" style="fill:#263238"></path><path d="M387.17,313.3c-.1.11-4.07-3-8.88-7s-8.64-7.32-8.55-7.43,4.07,3,8.88,7S387.26,313.18,387.17,313.3Z" style="fill:#263238"></path><path d="M394.4,301c-.06.14-4.76-1.7-10.51-4.09s-10.36-4.44-10.3-4.57,4.76,1.7,10.5,4.09S394.45,300.82,394.4,301Z" style="fill:#263238"></path><path d="M397.94,287.63a24.32,24.32,0,0,1-3.37-.32l-8.08-1-8.09-1a20.82,20.82,0,0,1-3.34-.51,20.89,20.89,0,0,1,3.38.14c2.08.16,4.95.44,8.11.83s6,.8,8.08,1.15A20,20,0,0,1,397.94,287.63Z" style="fill:#263238"></path><path d="M396.29,273.81a17.51,17.51,0,0,1-3,1c-1.89.55-4.53,1.23-7.47,1.85s-5.63,1.06-7.58,1.32a17.3,17.3,0,0,1-3.17.27,22.63,22.63,0,0,1,3.12-.64c1.93-.35,4.59-.84,7.52-1.46s5.57-1.24,7.48-1.7A22.07,22.07,0,0,1,396.29,273.81Z" style="fill:#263238"></path><path d="M392.27,260.55c.06.13-4.22,2.42-9.57,5.12s-9.74,4.78-9.81,4.65,4.22-2.42,9.57-5.12S392.2,260.43,392.27,260.55Z" style="fill:#263238"></path><path d="M384,249.8c.09.11-3.47,3.33-8,7.2s-8.2,6.91-8.29,6.8,3.46-3.33,8-7.2S383.94,249.69,384,249.8Z" style="fill:#263238"></path><path d="M370.13,241.82c.12.07-2.13,4-5,8.83a97,97,0,0,1-5.48,8.57c-.12-.07,2.13-4,5-8.84A100,100,0,0,1,370.13,241.82Z" style="fill:#263238"></path><path d="M357.68,236.82a102.11,102.11,0,0,1-3,9.86c-1.78,5.4-3.34,9.74-3.47,9.7a98.49,98.49,0,0,1,3-9.87A99.79,99.79,0,0,1,357.68,236.82Z" style="fill:#263238"></path><g style="opacity:0.30000000000000004"><path d="M372.68,294.18a24.63,24.63,0,0,1-11.58,11.88,36.5,36.5,0,0,1-7.84,3.06c6.11,3.26,14.09,1.31,19.43-3.1s8.16-11.41,8.35-18.34a21.73,21.73,0,0,0-1.73-9.6c-1.36-3-3.61-6.12-6.58-7.5a18.45,18.45,0,0,1,1.86,5.25A30.68,30.68,0,0,1,372.68,294.18Z"></path></g><path d="M137.83,348.12a8.6,8.6,0,0,1,1,1.11c.62.73,1.46,1.82,2.46,3.21A70.45,70.45,0,0,1,147.9,364a68.72,68.72,0,0,1,4.29,12.63c.39,1.66.65,3,.79,4a9.26,9.26,0,0,1,.17,1.48,7.49,7.49,0,0,1-.37-1.44c-.2-.93-.52-2.27-.94-3.91a82,82,0,0,0-4.41-12.51A81.16,81.16,0,0,0,141,352.65c-.95-1.41-1.74-2.53-2.31-3.3A7.57,7.57,0,0,1,137.83,348.12Z" style="fill:#263238"></path><path d="M133.58,344.58c.1-.11.57.15,1.06.59s.8.87.71,1-.57-.15-1.06-.59S133.49,344.68,133.58,344.58Z" style="fill:#263238"></path><path d="M134.56,341.64c.12-.07.61.52,1.1,1.34s.78,1.53.66,1.6-.62-.52-1.11-1.34S134.43,341.71,134.56,341.64Z" style="fill:#263238"></path><path d="M153.06,382.72a5.24,5.24,0,0,1,.15-.8q.21-.85.54-2.28c.47-2,1.14-4.84,1.91-8.39,1.54-7.1,3.41-17,4.78-28,.74-5.48,1-10.8,2.28-15.49a23.67,23.67,0,0,1,2.68-6.31,18.86,18.86,0,0,1,11.72-8.23,15,15,0,0,1,2.32-.35,4.61,4.61,0,0,1,.82,0,6.05,6.05,0,0,1-.81.12,21.6,21.6,0,0,0-2.29.44,19.47,19.47,0,0,0-7.54,3.86,18.55,18.55,0,0,0-3.85,4.4,23.25,23.25,0,0,0-2.59,6.22c-1.24,4.62-1.49,9.93-2.22,15.43-1.38,11-3.31,20.89-4.94,28-.82,3.55-1.55,6.4-2.07,8.36q-.4,1.41-.63,2.25A4.88,4.88,0,0,1,153.06,382.72Z" style="fill:#455a64"></path><path d="M154.25,303.42a16,16,0,0,0,2.55,3.72,16.81,16.81,0,0,0,9.61,4.68,36.36,36.36,0,0,0,10.92-.46l3.29-.58a6.67,6.67,0,0,1,1.22-.16,5.25,5.25,0,0,1-1.18.36c-.77.19-1.88.46-3.27.74a32.92,32.92,0,0,1-11,.61,16.48,16.48,0,0,1-9.81-4.94,10.79,10.79,0,0,1-1.88-2.81A4,4,0,0,1,154.25,303.42Z" style="fill:#263238"></path><path d="M150.45,300.26c.1-.1.58.21,1.06.7s.8,1,.7,1.06-.58-.21-1.06-.69S150.35,300.36,150.45,300.26Z" style="fill:#263238"></path><path d="M151.58,298.52c.13-.08.58.43,1,1.13s.69,1.34.56,1.41-.57-.43-1-1.13S151.46,298.59,151.58,298.52Z" style="fill:#263238"></path><path d="M154.71,298.29c.15,0,.17.61.06,1.32s-.32,1.25-.46,1.23-.17-.61-.06-1.32S154.57,298.27,154.71,298.29Z" style="fill:#263238"></path><path d="M164.13,337.34a10.35,10.35,0,0,1-.08,1.78c-.09,1.15-.26,2.8-.5,4.83-.47,4.08-1.3,9.68-2.55,15.81s-2.69,11.62-3.84,15.56c-.58,2-1.08,3.55-1.44,4.63a12.65,12.65,0,0,1-.62,1.67,13.26,13.26,0,0,1,.42-1.73c.33-1.18.76-2.76,1.28-4.67,1.06-4,2.44-9.44,3.69-15.56s2.13-11.7,2.7-15.75c.27-2,.49-3.59.65-4.81A14.78,14.78,0,0,1,164.13,337.34Z" style="fill:#455a64"></path><path d="M181.86,314.19c0,.1-1.43.11-3.64.69a18.05,18.05,0,0,0-12.54,11.58c-.76,2.15-.88,3.59-1,3.57a2.79,2.79,0,0,1,0-1,15,15,0,0,1,.58-2.68,17.37,17.37,0,0,1,12.8-11.82,15.36,15.36,0,0,1,2.72-.37A3.48,3.48,0,0,1,181.86,314.19Z" style="fill:#455a64"></path><path d="M157.8,382.51a5.24,5.24,0,0,1,0-.75c0-.49.12-1.22.25-2.15a20,20,0,0,1,2.37-7.57c.84-1.47,2-2.91,2.94-4.61a9.67,9.67,0,0,0,1-2.78,11.45,11.45,0,0,0,.08-3.16c-.16-2.17-.79-4.51-.3-7a8.54,8.54,0,0,1,1.6-3.39c.73-1,1.58-2,2.25-3a6.36,6.36,0,0,0,1.12-3.41,14.83,14.83,0,0,0-.48-3.57,21.11,21.11,0,0,1-.58-7,19.9,19.9,0,0,1,10.54-15.89,17.52,17.52,0,0,1,2-.88,4.26,4.26,0,0,1,.72-.23,3.85,3.85,0,0,1-.68.32c-.45.21-1.11.51-1.92,1a20.47,20.47,0,0,0-5.95,5.08,19.71,19.71,0,0,0-4.21,10.67,20.85,20.85,0,0,0,.6,6.82,15.28,15.28,0,0,1,.5,3.69,6.87,6.87,0,0,1-1.21,3.68c-.7,1.11-1.55,2.05-2.26,3.05a7.83,7.83,0,0,0-1.52,3.19c-.47,2.31.12,4.62.28,6.84a12,12,0,0,1-.11,3.29,10.21,10.21,0,0,1-1.11,2.9c-1,1.74-2.16,3.16-3,4.59a20.78,20.78,0,0,0-2.48,7.42c-.15.88-.26,1.59-.35,2.12A3.76,3.76,0,0,1,157.8,382.51Z" style="fill:#455a64"></path><path d="M183,324.55a9.45,9.45,0,0,0-2.46.35,9.77,9.77,0,0,0-5.17,4.13c-1.6,2.39-2.31,5.82-2.69,9.6A121.14,121.14,0,0,1,170.89,351a200.58,200.58,0,0,1-6,21.82c-.9,2.75-1.65,5-2.19,6.49-.25.72-.46,1.3-.62,1.75a2.49,2.49,0,0,1-.26.6A4.25,4.25,0,0,1,162,381c.13-.46.31-1.05.53-1.78l2-6.54c1.69-5.53,4-13.18,5.8-21.82.88-4.31,1.46-8.46,1.86-12.27s1.17-7.3,2.87-9.74a9.74,9.74,0,0,1,5.42-4.12,6.25,6.25,0,0,1,1.86-.23A4.13,4.13,0,0,1,183,324.55Z" style="fill:#e0e0e0"></path><path d="M146.29,378.93h19.37s-11.75,93.29-76.61,93l.83-18.19S134,451,146.29,378.93Z" style="fill:#FF725E"></path><path d="M70.7,442.54H75a1.83,1.83,0,0,1,1.83,1.83V462a0,0,0,0,1,0,0h-8a0,0,0,0,1,0,0V444.37A1.83,1.83,0,0,1,70.7,442.54Z" transform="translate(-380.65 517.19) rotate(-88.99)" style="fill:#FF725E"></path><g style="opacity:0.30000000000000004"><path d="M70.7,442.54H75a1.83,1.83,0,0,1,1.83,1.83V462a0,0,0,0,1,0,0h-8a0,0,0,0,1,0,0V444.37A1.83,1.83,0,0,1,70.7,442.54Z" transform="translate(-380.65 517.19) rotate(-88.99)"></path></g><path d="M69.64,457h5.94a3,3,0,0,1,3,3v16.47a0,0,0,0,1,0,0h-12a0,0,0,0,1,0,0V460.06A3,3,0,0,1,69.64,457Z" transform="matrix(0.02, -1, 1, 0.02, -395.38, 531.17)" style="fill:#FF725E"></path><rect x="68.46" y="454.75" width="20.39" height="7.7" transform="translate(-381.26 529.18) rotate(-88.99)" style="fill:#FF725E"></rect><rect x="79.17" y="447.2" width="12.44" height="27.68" transform="translate(-5.62 1.08) rotate(-0.7)" style="fill:#263238"></rect><path d="M91.64,471.9c0,.23-2.74.4-6.11.42a34.37,34.37,0,0,1-6.13-.26,38.67,38.67,0,0,1,6.12-.27c1.69,0,3.22,0,4.33,0l1.31,0A2.44,2.44,0,0,1,91.64,471.9Z" style="fill:#455a64"></path><path d="M91.58,466.92c0,.23-2.74.39-6.11.41a35,35,0,0,1-6.13-.25,38.67,38.67,0,0,1,6.12-.27c1.69,0,3.22,0,4.33,0l1.31,0A1.75,1.75,0,0,1,91.58,466.92Z" style="fill:#455a64"></path><path d="M91.72,461.89c0,.23-2.73.39-6.11.41a34.92,34.92,0,0,1-6.12-.25,38.67,38.67,0,0,1,6.12-.27c1.69,0,3.22,0,4.32,0l1.31,0A2,2,0,0,1,91.72,461.89Z" style="fill:#455a64"></path><path d="M91.46,457c0,.23-2.74.4-6.12.42a34.29,34.29,0,0,1-6.12-.26,38.67,38.67,0,0,1,6.12-.27c1.69,0,3.22,0,4.33,0l1.31,0A2.57,2.57,0,0,1,91.46,457Z" style="fill:#455a64"></path><path d="M91.64,452.23c0,.23-2.74.4-6.11.42a36.2,36.2,0,0,1-6.13-.25,36,36,0,0,1,6.12-.27c1.69,0,3.22,0,4.33,0l1.31,0A2.44,2.44,0,0,1,91.64,452.23Z" style="fill:#455a64"></path><path d="M98.44,471s0,.16.06.5l0,.58-.17-.56a83.2,83.2,0,0,1-1.91-9.16c-.43-2.69-.72-5.13-.89-6.91a14.66,14.66,0,0,1-.13-2.89,18.89,18.89,0,0,1,.5,2.85c.25,1.76.6,4.19,1,6.87.69,4.34,1.4,8,1.55,9.2l-.16,0C98.38,471.14,98.41,471,98.44,471Z" style="fill:#263238"></path><path d="M107.64,469.21a92.86,92.86,0,0,1-3.22-9.42,92.86,92.86,0,0,1-2.73-9.57,92.86,92.86,0,0,1,3.22,9.42A92.86,92.86,0,0,1,107.64,469.21Z" style="fill:#263238"></path><path d="M118.51,464.62a98.81,98.81,0,0,1-4.78-9.06c-2.5-5.08-4.43-9.24-4.3-9.3a99.8,99.8,0,0,1,4.77,9.07C116.71,460.4,118.63,464.56,118.51,464.62Z" style="fill:#263238"></path><path d="M128.14,457.42a91.87,91.87,0,0,1-6.18-7.91,98.59,98.59,0,0,1-5.77-8.23,96.34,96.34,0,0,1,6.19,7.92C125.67,453.66,128.25,457.34,128.14,457.42Z" style="fill:#263238"></path><path d="M136.55,449.44a93.69,93.69,0,0,1-7.2-6.85,96.19,96.19,0,0,1-6.82-7.22,94.54,94.54,0,0,1,7.19,6.85A97.73,97.73,0,0,1,136.55,449.44Z" style="fill:#263238"></path><path d="M143.48,439.86a14.64,14.64,0,0,1-2.51-1.34l-5.92-3.46-5.91-3.45a15.52,15.52,0,0,1-2.41-1.53,15.05,15.05,0,0,1,2.58,1.21c1.56.81,3.69,2,6,3.32s4.37,2.64,5.84,3.6A15.72,15.72,0,0,1,143.48,439.86Z" style="fill:#263238"></path><path d="M148.17,430.16a13.82,13.82,0,0,1-2.43-1.09c-1.47-.72-3.51-1.71-5.77-2.76s-4.34-1.95-5.84-2.61a15.48,15.48,0,0,1-2.41-1.14,11.93,11.93,0,0,1,2.54.8c1.54.57,3.65,1.43,5.93,2.48s4.29,2.1,5.72,2.9A13.26,13.26,0,0,1,148.17,430.16Z" style="fill:#263238"></path><path d="M153.77,420.78a13.93,13.93,0,0,1-2.77-.46c-1.7-.37-4-.94-6.57-1.68s-4.82-1.51-6.45-2.11a14.17,14.17,0,0,1-2.59-1.09,16.24,16.24,0,0,1,2.71.74c1.65.51,3.94,1.22,6.47,2s4.84,1.36,6.51,1.82A16.1,16.1,0,0,1,153.77,420.78Z" style="fill:#263238"></path><path d="M156.76,411.32a84.29,84.29,0,0,1-9.25-.92,84.45,84.45,0,0,1-9.18-1.43,84.06,84.06,0,0,1,9.25.92A79,79,0,0,1,156.76,411.32Z" style="fill:#263238"></path><path d="M159.94,402.07a12.64,12.64,0,0,1-2.69-.08c-1.66-.12-3.95-.32-6.47-.57s-4.81-.51-6.45-.73a13.79,13.79,0,0,1-2.66-.45,14.26,14.26,0,0,1,2.7.09c1.66.12,3.94.32,6.46.57s4.8.51,6.45.72A14.83,14.83,0,0,1,159.94,402.07Z" style="fill:#263238"></path><path d="M162.39,393.11a92.12,92.12,0,0,1-9.64.56,86.39,86.39,0,0,1-9.65,0,92.12,92.12,0,0,1,9.64-.56A89.44,89.44,0,0,1,162.39,393.11Z" style="fill:#263238"></path><path d="M163.4,385.79a13.17,13.17,0,0,1-2.64.41c-1.64.17-3.91.31-6.42.32s-4.79-.11-6.43-.26a12.81,12.81,0,0,1-2.64-.38,15,15,0,0,1,2.66,0c1.64.06,3.9.13,6.4.11s4.77-.1,6.4-.17A15,15,0,0,1,163.4,385.79Z" style="fill:#263238"></path><path d="M147.13,381.7a.72.72,0,0,1,0,.25v.74c0,.65,0,1.61-.07,2.84a74,74,0,0,1-1.23,10.39,78.32,78.32,0,0,1-4.35,14.89,77.44,77.44,0,0,1-22,30.58,78.86,78.86,0,0,1-12.76,8.83,73.1,73.1,0,0,1-9.47,4.45c-1.14.46-2.06.74-2.67,1l-.7.23a.8.8,0,0,1-.25.06.7.7,0,0,1,.23-.11l.68-.28c.6-.25,1.51-.56,2.64-1a82.14,82.14,0,0,0,9.36-4.58,79.89,79.89,0,0,0,39-54,81.57,81.57,0,0,0,1.39-10.33c.11-1.22.11-2.18.16-2.83,0-.3,0-.54,0-.74A.87.87,0,0,1,147.13,381.7Z" style="fill:#fff"></path><path d="M236.92,273s-10.72-14.51-35.53-12.36c0,0,25.25-19.4,10.39-39.33,0,0,31.89,9.42,32.25-30.44,0,0,5.8,37,35.88,26.46,0,0,2.14,29.36,22.95,23.93C292.79,251.16,283,259.89,285,272.55" style="fill:#FF725E"></path><g style="opacity:0.8"><path d="M236.92,273s-10.72-14.51-35.53-12.36c0,0,25.25-19.4,10.39-39.33,0,0,31.89,9.42,32.25-30.44,0,0,5.8,37,35.88,26.46,0,0,2.14,29.36,22.95,23.93C292.79,251.16,283,259.89,285,272.55" style="fill:#fff"></path></g><path d="M236.92,273s-.25-16.92-20.18-15.19c0,0,18.53-10.69,6.6-26.7,0,0,25.62,7.57,25.91-24.45,0,0,4.65,29.69,28.82,21.25,0,0-2.89,21.54,13.84,17.17-8.09,8-11.37,17-9.77,27.2" style="fill:#FF725E"></path><g style="opacity:0.6000000000000001"><path d="M236.92,273s-.25-16.92-20.18-15.19c0,0,18.53-10.69,6.6-26.7,0,0,25.62,7.57,25.91-24.45,0,0,4.65,29.69,28.82,21.25,0,0-2.89,21.54,13.84,17.17-8.09,8-11.37,17-9.77,27.2" style="fill:#fff"></path></g><path d="M269.65,160.76a5.13,5.13,0,0,1-.24.63l-.79,1.76c-.35.76-.77,1.69-1.22,2.8s-1,2.33-1.51,3.74-1.13,2.93-1.68,4.6-1.12,3.46-1.7,5.35c-1.09,3.8-2.13,8-2.95,12.52s-1.3,8.82-1.6,12.76c-.12,2-.25,3.85-.27,5.61s-.05,3.4,0,4.89.08,2.85.12,4,.1,2.21.17,3,.09,1.43.12,1.92a3,3,0,0,1,0,.68,5.34,5.34,0,0,1-.11-.67q-.07-.74-.21-1.92c-.1-.83-.2-1.85-.26-3s-.18-2.55-.19-4-.08-3.14,0-4.91.12-3.65.22-5.63a113.18,113.18,0,0,1,4.57-25.39c.59-1.89,1.14-3.7,1.75-5.35s1.18-3.2,1.74-4.59,1.12-2.64,1.6-3.73.92-2,1.3-2.77l.87-1.72A3,3,0,0,1,269.65,160.76Z" style="fill:#FF725E"></path><path d="M198.07,153.89a33,33,0,0,0-6-4.49,33.26,33.26,0,0,0-7.06-2.52,6.79,6.79,0,0,1,2.23.22,18.55,18.55,0,0,1,5.08,1.84,18.9,18.9,0,0,1,4.34,3.21A6.55,6.55,0,0,1,198.07,153.89Z" style="fill:#FF725E"></path><path d="M205.75,197.42a2.34,2.34,0,0,1,.42.4l1.11,1.19c1,1,2.31,2.59,3.91,4.56s3.43,4.37,5.36,7.11,3.92,5.86,5.86,9.2,3.62,6.64,5.06,9.67,2.6,5.82,3.5,8.19,1.59,4.31,2,5.66q.28.94.48,1.56a2.26,2.26,0,0,1,.13.56,2.26,2.26,0,0,1-.23-.53l-.58-1.52c-.47-1.33-1.2-3.25-2.15-5.59s-2.16-5.1-3.59-8.12-3.15-6.27-5.08-9.62-3.92-6.42-5.8-9.18-3.69-5.18-5.26-7.16-2.85-3.58-3.77-4.66l-1-1.25A2.44,2.44,0,0,1,205.75,197.42Z" style="fill:#FF725E"></path><path d="M274.51,202.53a1.72,1.72,0,0,1-.21.46l-.67,1.25c-.31.54-.67,1.2-1.06,2s-.87,1.66-1.32,2.67c-1,2-2,4.42-3,7.16a78.08,78.08,0,0,0-4.16,18.47c-.27,2.9-.39,5.53-.38,7.74,0,1.1,0,2.1.05,3s.06,1.63.1,2.25.05,1,.07,1.42a1.37,1.37,0,0,1,0,.5,2.25,2.25,0,0,1-.09-.49c-.05-.38-.1-.85-.17-1.42s-.15-1.37-.19-2.25-.13-1.88-.13-3a71,71,0,0,1,.28-7.79,72.75,72.75,0,0,1,4.18-18.58,70.42,70.42,0,0,1,3.09-7.16c.47-1,1-1.87,1.4-2.65s.8-1.43,1.13-2,.56-.88.76-1.21A2,2,0,0,1,274.51,202.53Z" style="fill:#FF725E"></path><path d="M294.15,206.41c.05.06-.83.71-2.16,1.87a36.84,36.84,0,0,0-8.52,10.7,26.43,26.43,0,0,1-1.35,2.53,11.4,11.4,0,0,1,1-2.7,30.94,30.94,0,0,1,3.68-5.9,30.11,30.11,0,0,1,4.93-4.91A11.07,11.07,0,0,1,294.15,206.41Z" style="fill:#FF725E"></path><path d="M210.65,231.91a11.93,11.93,0,0,1,2.44,1.53,34.6,34.6,0,0,1,5.16,4.68,33.84,33.84,0,0,1,4.12,5.61,11.66,11.66,0,0,1,1.27,2.59,27.69,27.69,0,0,1-1.58-2.4,45,45,0,0,0-4.2-5.46,45.57,45.57,0,0,0-5-4.73A22.61,22.61,0,0,1,210.65,231.91Z" style="fill:#FF725E"></path><path d="M205.58,222.61c-.08.14-2.12-1-4.88-1.7s-5.09-.71-5.09-.87a14.5,14.5,0,0,1,10,2.57Z" style="fill:#FF725E"></path><path d="M185,191.31a6.85,6.85,0,0,1,.66-1.66l-.91-1.38,1.9-2,1.41.85a7.26,7.26,0,0,1,1.64-.71l.34-1.61,2.73-.05.39,1.61a7,7,0,0,1,1.66.65l1.38-.9,2,1.9-.86,1.41a6.31,6.31,0,0,1,.71,1.64l1.62.33,0,2.74-1.6.39a6.78,6.78,0,0,1-.66,1.65l.91,1.39-1.9,2L195,198.7a6.25,6.25,0,0,1-1.63.71L193,201l-2.73,0-.39-1.6a6.85,6.85,0,0,1-1.66-.66l-1.38.9-2-1.9.86-1.41a6.25,6.25,0,0,1-.71-1.63l-1.62-.34,0-2.73,1.6-.39Zm3.6,1.55a2.93,2.93,0,1,0,2.88-3A2.93,2.93,0,0,0,188.61,192.86Z" style="fill:#FF725E;fill-rule:evenodd"></path><path d="M299.57,265.2a5.17,5.17,0,0,1,.48-1.22l-.67-1,1.41-1.45,1,.63a5.13,5.13,0,0,1,1.2-.52l.25-1.19,2,0,.29,1.19a4.77,4.77,0,0,1,1.22.48l1-.67,1.45,1.41-.63,1a5,5,0,0,1,.52,1.2l1.19.25,0,2-1.19.29a5.17,5.17,0,0,1-.48,1.22l.66,1-1.4,1.45-1-.63a5,5,0,0,1-1.21.52l-.24,1.19-2,0-.29-1.18a5.17,5.17,0,0,1-1.22-.48l-1,.66L299.5,270l.63-1a5,5,0,0,1-.52-1.21l-1.19-.25,0-2,1.19-.29Zm2.66,1.14a2.16,2.16,0,1,0,4.32-.07,2.16,2.16,0,1,0-4.32.07Z" style="fill:#455a64;fill-rule:evenodd"></path><rect x="274.18" y="182.1" width="10.43" height="4.72" transform="translate(-7.11 357.67) rotate(-64.59)" style="fill:#e0e0e0"></rect><path d="M275,188.16a10.74,10.74,0,0,1,1.23.49c.76.32,1.83.78,3.11,1.36l-.25.09c1.12-2.45,2.67-5.79,4.41-9.45-.11-.31.15.43.12.35h-.06l-.07,0-.14-.06-.28-.14-.56-.26-1.08-.52-2.06-1,.33-.11c-1.29,2.68-2.45,5-3.28,6.64-.4.76-.73,1.41-1,1.95a4.56,4.56,0,0,1-.41.72,3.13,3.13,0,0,1,.26-.68c.23-.54.52-1.19.85-1.95.75-1.69,1.83-4.1,3.14-6.89l.11-.23.22.11,2.07,1,1.09.51.55.26.28.14.14.06.07,0h.07c0-.08.23.66.12.35-1.74,3.66-3.34,7-4.54,9.39l-.08.17-.17-.09c-1.34-.66-2.41-1.21-3.12-1.59A7.68,7.68,0,0,1,275,188.16Z" style="fill:#263238"></path><path d="M283.35,175.75a4.34,4.34,0,0,0-5.79,2.06l7.86,3.74A4.35,4.35,0,0,0,283.35,175.75Z" style="fill:#e0e0e0"></path><path d="M283.35,175.75a1.2,1.2,0,0,1,.49.18,4.22,4.22,0,0,1,1.12.9,4.28,4.28,0,0,1,1,2,4.45,4.45,0,0,1-.32,2.83l-.09.22-.23-.1-3.93-1.85L277.45,178l-.22-.1.11-.22a4.54,4.54,0,0,1,2-2,4.4,4.4,0,0,1,2.17-.48,3.86,3.86,0,0,1,1.4.3c.31.14.46.24.44.26a8.45,8.45,0,0,0-1.84-.27,4.22,4.22,0,0,0-2,.55,4.16,4.16,0,0,0-1.76,1.89l-.11-.32,3.94,1.85,3.92,1.88-.32.12a4.19,4.19,0,0,0,.36-2.56,4.35,4.35,0,0,0-.83-1.88A8,8,0,0,0,283.35,175.75Z" style="fill:#263238"></path><path d="M283.45,178.24a2.74,2.74,0,0,0-.86-2.8" style="fill:#e0e0e0"></path><path d="M282.59,175.44c.07-.13.8.27,1.08,1.2s-.09,1.66-.22,1.6,0-.71-.27-1.45S282.5,175.56,282.59,175.44Z" style="fill:#263238"></path><path d="M278.65,180.07a9,9,0,0,1,2.28.94,9.17,9.17,0,0,1,2.23,1.09,4.68,4.68,0,0,1-2.44-.62C279.44,180.91,278.57,180.18,278.65,180.07Z" style="fill:#263238"></path><path d="M278.12,181.17a9.71,9.71,0,0,1,2.29,1,9.17,9.17,0,0,1,2.22,1.08,4.52,4.52,0,0,1-2.44-.61C278.92,182,278,181.29,278.12,181.17Z" style="fill:#263238"></path><path d="M277.6,182.28a9,9,0,0,1,2.28.94,9.41,9.41,0,0,1,2.23,1.09,4.72,4.72,0,0,1-2.44-.61C278.39,183.12,277.52,182.39,277.6,182.28Z" style="fill:#263238"></path><path d="M277.07,183.38a9.71,9.71,0,0,1,2.29,1,9.17,9.17,0,0,1,2.22,1.08,4.52,4.52,0,0,1-2.44-.61C277.87,184.23,277,183.5,277.07,183.38Z" style="fill:#263238"></path><path d="M276.54,184.49a9.26,9.26,0,0,1,2.29.94,9.87,9.87,0,0,1,2.23,1.09,7.15,7.15,0,0,1-4.52-2Z" style="fill:#263238"></path><path d="M276,185.6a9,9,0,0,1,2.29.94,9.21,9.21,0,0,1,2.22,1.09,7.23,7.23,0,0,1-4.51-2Z" style="fill:#263238"></path><path d="M275.49,186.7a9.54,9.54,0,0,1,2.29,1,9.17,9.17,0,0,1,2.22,1.08,4.48,4.48,0,0,1-2.43-.61C276.29,187.55,275.41,186.82,275.49,186.7Z" style="fill:#263238"></path><rect x="171.84" y="261.9" width="10.43" height="4.72" transform="translate(-93.35 96.74) rotate(-24.4)" style="fill:#e0e0e0"></rect><path d="M182.77,264.25a11.2,11.2,0,0,1-.62-1.17c-.37-.73-.89-1.77-1.5-3l.25.09c-2.44,1.15-5.78,2.7-9.46,4.37-.12.31.15-.42.13-.34h0v0l0,0,0,.07.06.14.13.28.25.56c.17.37.33.73.5,1.09l.93,2.09-.33-.12c2.73-1.22,5.09-2.23,6.8-3l2-.84a5,5,0,0,1,.78-.29,3,3,0,0,1-.63.36l-1.91.94c-1.66.8-4,1.95-6.85,3.24l-.23.1-.1-.23c-.31-.66-.62-1.36-1-2.07-.17-.36-.33-.73-.5-1.1l-.25-.55-.13-.29-.07-.14,0-.07v-.05h0l.13-.34c3.69-1.68,7.05-3.17,9.53-4.24l.17-.08.08.17c.59,1.38,1.05,2.49,1.35,3.24A5.89,5.89,0,0,1,182.77,264.25Z" style="fill:#263238"></path><path d="M168.41,268.36a4.35,4.35,0,0,0,5.76,2.17l-3.6-7.93A4.34,4.34,0,0,0,168.41,268.36Z" style="fill:#e0e0e0"></path><path d="M168.41,268.36s-.12-.14-.26-.44a4.09,4.09,0,0,1-.27-1.42,4.34,4.34,0,0,1,.52-2.16,4.59,4.59,0,0,1,2.07-2l.22-.1.1.22c.57,1.23,1.18,2.56,1.82,4s1.22,2.73,1.78,4l.1.22-.22.1a4.52,4.52,0,0,1-2.84.26,4.28,4.28,0,0,1-2-1,3.9,3.9,0,0,1-.88-1.13c-.15-.31-.2-.48-.17-.49a7.9,7.9,0,0,0,1.23,1.4,4.26,4.26,0,0,0,4.43.55l-.12.32-1.82-4c-.62-1.4-1.22-2.73-1.78-4l.32.12a4.24,4.24,0,0,0-2.5,3.69A8.47,8.47,0,0,0,168.41,268.36Z" style="fill:#263238"></path><path d="M169.94,266.4a2.74,2.74,0,0,0-1.15,2.69" style="fill:#e0e0e0"></path><path d="M168.79,269.09c-.13.06-.44-.73-.06-1.61s1.16-1.21,1.21-1.08-.43.56-.73,1.28S168.94,269.06,168.79,269.09Z" style="fill:#263238"></path><path d="M174.79,268.1a9,9,0,0,1-1.14-2.19,9.38,9.38,0,0,1-1-2.27,7.13,7.13,0,0,1,2.14,4.46Z" style="fill:#263238"></path><path d="M175.9,267.6a9.58,9.58,0,0,1-1.14-2.2,9.79,9.79,0,0,1-1-2.26c.11-.09.86.77,1.46,2A4.5,4.5,0,0,1,175.9,267.6Z" style="fill:#263238"></path><path d="M177,267.09a9.19,9.19,0,0,1-1.14-2.19,9.38,9.38,0,0,1-1-2.27,7.13,7.13,0,0,1,2.14,4.46Z" style="fill:#263238"></path><path d="M178.13,266.59a9.85,9.85,0,0,1-1.14-2.2,9.57,9.57,0,0,1-1-2.27,4.67,4.67,0,0,1,1.46,2A4.53,4.53,0,0,1,178.13,266.59Z" style="fill:#263238"></path><path d="M179.25,266.08a9.14,9.14,0,0,1-1.14-2.2,9.4,9.4,0,0,1-1-2.26,7.13,7.13,0,0,1,2.14,4.46Z" style="fill:#263238"></path><path d="M180.36,265.57a9.37,9.37,0,0,1-1.14-2.19,9.57,9.57,0,0,1-1-2.27,4.67,4.67,0,0,1,1.46,2A4.52,4.52,0,0,1,180.36,265.57Z" style="fill:#263238"></path><path d="M181.48,265.07a40.24,40.24,0,0,1-2.14-4.46c.11-.09.87.77,1.47,2A4.61,4.61,0,0,1,181.48,265.07Z" style="fill:#263238"></path><path d="M201.52,142.38s12.11,12,15.13,19.43c2.87,7.11,4.77,13.73,4.77,13.73s3.12-5.46,6.63,0,20.1,71.77,22.83,96.73h10.57s-4.92-41.73-7.26-46.41-4.3-6.24-4.3-6.24-2.73-17.56-4.68-20.29a13.16,13.16,0,0,0-4.29-3.9s-3.51-19.11-8.58-23-9-1.95-9-1.95S220.14,150,201.52,142.38Z" style="fill:#FF725E"></path><path d="M300.67,231a55.81,55.81,0,0,0-7,2.38,58.26,58.26,0,0,0-6.41,3.72,6.81,6.81,0,0,1,1.62-1.48,24.09,24.09,0,0,1,9.62-4.37A7.24,7.24,0,0,1,300.67,231Z" style="fill:#455a64"></path><path d="M300.26,228.86A72.81,72.81,0,0,0,293.2,232c-3.73,2.06-6.28,4.45-6.39,4.32a8.14,8.14,0,0,1,1.6-1.63,28,28,0,0,1,4.54-3.14,26.89,26.89,0,0,1,5.07-2.18A7.88,7.88,0,0,1,300.26,228.86Z" style="fill:#455a64"></path><path d="M298.21,234c0,.16-2.2.19-4.79.94s-4.49,1.85-4.57,1.72a13.27,13.27,0,0,1,9.36-2.66Z" style="fill:#455a64"></path><path d="M274.88,272.17c-1.77-14,2.83-30.42,14-38.28l2.66,2.17s-13.91,8.28-12.89,36.21" style="fill:#263238"></path><path d="M217.41,252a33.58,33.58,0,0,0-5.37,2.39,34.87,34.87,0,0,0-4.56,3.71,13.8,13.8,0,0,1,9.93-6.1Z" style="fill:#455a64"></path><path d="M217.13,250.76a51.19,51.19,0,0,1-5.44,2.1,50.87,50.87,0,0,1-5.5,2,24.23,24.23,0,0,1,5.32-2.46A23.76,23.76,0,0,1,217.13,250.76Z" style="fill:#455a64"></path><path d="M247.94,275.62l-4.84-1.26a10.74,10.74,0,0,0-3.65-11.13,9.21,9.21,0,0,1-5.31,7.13,7.86,7.86,0,0,1-6.65-.42,6.93,6.93,0,0,1-3.63-4.72,7.86,7.86,0,0,1,3.87-8,9.8,9.8,0,0,1,3.66-1.24,3.51,3.51,0,0,0-.36-.29,13.38,13.38,0,0,0-15.08-.41l-2.82-4.13a18.33,18.33,0,0,1,20.94.56,14.92,14.92,0,0,1,4.35,5.22,15.83,15.83,0,0,1,9.52,18.72ZM233,260.83a5.35,5.35,0,0,0-2.76.67,2.93,2.93,0,0,0-1.52,2.75,2.08,2.08,0,0,0,1.09,1.29,2.93,2.93,0,0,0,2.37.2,4.5,4.5,0,0,0,2.32-4.58l0-.2A8.44,8.44,0,0,0,233,260.83Z" style="fill:#263238"></path><path d="M207.34,182.76a7.84,7.84,0,0,1,1.34.71c.85.48,2,1.24,3.48,2.23a61.07,61.07,0,0,1,4.85,3.78,62,62,0,0,1,10.07,11.14,58.32,58.32,0,0,1,3.27,5.19c.85,1.53,1.49,2.79,1.88,3.69a7.7,7.7,0,0,1,.57,1.4,8,8,0,0,1-.75-1.31c-.45-.87-1.13-2.1-2-3.59s-2-3.24-3.34-5.11a67.21,67.21,0,0,0-10-11C215,188.33,213.35,187,212,186s-2.56-1.83-3.38-2.36A8.61,8.61,0,0,1,207.34,182.76Z" style="fill:#FF725E"></path><path d="M190.42,294.18h.85a0,0,0,0,1,0,0v50.51a0,0,0,0,1,0,0h-.85a9,9,0,0,1-9-9V303.14A9,9,0,0,1,190.42,294.18Z" style="fill:#263238"></path><path d="M335.87,294.18h.94a8.88,8.88,0,0,1,8.88,8.88v32.76a8.88,8.88,0,0,1-8.88,8.88h-.94a0,0,0,0,1,0,0V294.18A0,0,0,0,1,335.87,294.18Z" style="fill:#263238"></path><rect x="188.69" y="284.32" width="149.39" height="109.99" rx="14.12" style="fill:#FF725E"></rect><path d="M282.39,296a34.23,34.23,0,0,0-34.23,34.23h68.47A34.23,34.23,0,0,0,282.39,296Z" style="fill:#fff"></path><path d="M310,328.58c1.44,0,2.74,0,3.68,0a6.73,6.73,0,0,1,1.53.1,7.86,7.86,0,0,1-1.52.11c-1,0-2.25,0-3.69,0l-3.68,0-1.12,0a1.75,1.75,0,0,1-.41,0,1.26,1.26,0,0,1,.41,0l1.12-.05Z" style="fill:#e0e0e0"></path><path d="M307.58,318.23c2.6-1.24,4.76-2.11,4.83-2s-2,1.24-4.62,2.41a34.84,34.84,0,0,1-4.83,2A35,35,0,0,1,307.58,318.23Z" style="fill:#e0e0e0"></path><path d="M301.16,309.77c1.9-2.16,3.54-3.82,3.67-3.71s-1.35,1.93-3.29,4.05a33.89,33.89,0,0,1-3.67,3.7A34.86,34.86,0,0,1,301.16,309.77Z" style="fill:#e0e0e0"></path><path d="M292,304.36a23,23,0,0,1,2.05-4.79c.16.06-.54,2.28-1.57,5a35.67,35.67,0,0,1-2.06,4.79A34.19,34.19,0,0,1,292,304.36Z" style="fill:#e0e0e0"></path><path d="M281.51,302.58c0-2.88.08-5.21.25-5.21s.28,2.33.26,5.21a33.85,33.85,0,0,1-.26,5.21A33.18,33.18,0,0,1,281.51,302.58Z" style="fill:#e0e0e0"></path><path d="M271.05,304.54c-1-2.69-1.74-4.91-1.58-5s1.08,2.08,2,4.79a32.38,32.38,0,0,1,1.58,5A34.94,34.94,0,0,1,271.05,304.54Z" style="fill:#e0e0e0"></path><path d="M262,310.11c-1.94-2.12-3.42-3.93-3.29-4.05s1.77,1.55,3.67,3.71a34.86,34.86,0,0,1,3.29,4A33.89,33.89,0,0,1,262,310.11Z" style="fill:#e0e0e0"></path><path d="M255.73,318.7c-2.63-1.18-4.7-2.26-4.63-2.42s2.24.72,4.84,2a35.13,35.13,0,0,1,4.62,2.41A34.91,34.91,0,0,1,255.73,318.7Z" style="fill:#e0e0e0"></path><path d="M253.55,328.83c-1.44,0-2.74,0-3.69,0a7.86,7.86,0,0,1-1.52-.11,6.73,6.73,0,0,1,1.53-.1c.94,0,2.24,0,3.68,0l3.68.06,1.12.05a1.17,1.17,0,0,1,.4,0,1.6,1.6,0,0,1-.4,0l-1.12,0Z" style="fill:#e0e0e0"></path><path d="M225.31,302a4.55,4.55,0,1,1-4.55-4.54A4.55,4.55,0,0,1,225.31,302Z" style="fill:#fff"></path><path d="M225.31,315.7a4.55,4.55,0,1,1-4.55-4.54A4.55,4.55,0,0,1,225.31,315.7Z" style="fill:#455a64"></path><path d="M311.43,384.82s0-.29,0-.85,0-1.39,0-2.45c0-2.17,0-5.33-.05-9.38,0-8.13-.06-19.85-.1-34.3l.19.19-93.17.07h0l.26-.26c0,16.57,0,32.46,0,47l-.25-.24,66.92.11,19.3.07,5.16,0,1.34,0h.46l-.43,0h-1.31l-5.11,0-19.25.07-67.08.12H218v-.25c0-14.52,0-30.41,0-47v-.26h.27l93.17.07h.2v.19c-.05,14.5-.08,26.26-.11,34.41,0,4,0,7.19,0,9.34,0,1.05,0,1.86,0,2.42S311.43,384.82,311.43,384.82Z" style="fill:#263238"></path><path d="M204.1,394.09H322.67a0,0,0,0,1,0,0v.59a6.23,6.23,0,0,1-6.23,6.23H210.34a6.23,6.23,0,0,1-6.23-6.23v-.59a0,0,0,0,1,0,0Z" style="fill:#263238"></path><g style="opacity:0.30000000000000004"><path d="M301.47,344.43a2.81,2.81,0,0,0,1.93,3,3.11,3.11,0,0,0,3.39-1.24,3.49,3.49,0,0,0,0-3.67,3.48,3.48,0,0,1-.78,2.35,2.56,2.56,0,0,1-2.26.88,2,2,0,0,1-1.69-1.64"></path></g><path d="M306.81,343.32a2.77,2.77,0,1,1-2.76-2.76A2.76,2.76,0,0,1,306.81,343.32Z" style="fill:#e0e0e0"></path><path d="M306.81,343.32a5.24,5.24,0,0,1-.18-.65,2.78,2.78,0,0,0-1-1.4,2.61,2.61,0,0,0-2.42-.32,2.53,2.53,0,0,0,0,4.74,2.61,2.61,0,0,0,2.42-.32,2.78,2.78,0,0,0,1-1.4,6,6,0,0,1,.18-.65s.09.25,0,.7a2.7,2.7,0,0,1-1,1.64,2.92,2.92,0,0,1-2.81.48,3,3,0,0,1,0-5.64,2.92,2.92,0,0,1,2.81.48,2.7,2.7,0,0,1,1,1.64C306.9,343.07,306.84,343.32,306.81,343.32Z" style="fill:#263238"></path><path d="M305.32,342.14c.05.14-.6.48-1.21,1.12s-.93,1.29-1.07,1.24,0-.87.7-1.61S305.29,342,305.32,342.14Z" style="fill:#263238"></path><path d="M305.32,344.18c-.12.08-.58-.42-1.26-.87s-1.32-.7-1.29-.85.81-.11,1.58.42S305.44,344.12,305.32,344.18Z" style="fill:#263238"></path><g style="opacity:0.30000000000000004"><path d="M302.76,378.63a2.83,2.83,0,0,0,1.94,3,3.11,3.11,0,0,0,3.39-1.24,3.49,3.49,0,0,0,.05-3.66,3.43,3.43,0,0,1-.79,2.34,2.55,2.55,0,0,1-2.25.88,2,2,0,0,1-1.7-1.63"></path></g><circle cx="305.35" cy="377.51" r="2.76" style="fill:#e0e0e0"></circle><path d="M308.11,377.51c-.05,0-.06-.24-.19-.65a2.74,2.74,0,0,0-1-1.4,2.62,2.62,0,0,0-2.42-.32,2.54,2.54,0,1,0,2.42,4.42,2.7,2.7,0,0,0,1-1.4c.13-.4.14-.65.19-.65s.09.25,0,.7a2.74,2.74,0,0,1-1,1.65,2.93,2.93,0,0,1-2.81.47,3,3,0,0,1,0-5.64,3,3,0,0,1,2.81.48,2.7,2.7,0,0,1,1,1.64C308.2,377.27,308.14,377.52,308.11,377.51Z" style="fill:#263238"></path><path d="M306.62,376.33c.05.14-.61.48-1.21,1.12s-.93,1.29-1.08,1.25,0-.88.7-1.61S306.59,376.2,306.62,376.33Z" style="fill:#263238"></path><path d="M306.62,378.37c-.13.09-.59-.42-1.27-.87s-1.31-.7-1.28-.85.8-.11,1.58.42S306.74,378.31,306.62,378.37Z" style="fill:#263238"></path><g style="opacity:0.30000000000000004"><path d="M222.38,344.39a2.83,2.83,0,0,0,1.94,3,3.12,3.12,0,0,0,3.39-1.25,3.49,3.49,0,0,0,0-3.66,3.45,3.45,0,0,1-.79,2.35,2.55,2.55,0,0,1-2.25.88,2,2,0,0,1-1.7-1.64"></path></g><circle cx="224.96" cy="343.28" r="2.76" style="fill:#e0e0e0"></circle><path d="M227.73,343.28s-.06-.25-.19-.65a2.67,2.67,0,0,0-1-1.4,2.59,2.59,0,0,0-2.41-.32,2.53,2.53,0,0,0,0,4.74,2.62,2.62,0,0,0,2.42-.32,2.7,2.7,0,0,0,1-1.4c.13-.4.14-.65.19-.65a1.21,1.21,0,0,1,0,.7,2.75,2.75,0,0,1-1,1.64,2.93,2.93,0,0,1-2.81.48,3,3,0,0,1,0-5.64,2.93,2.93,0,0,1,2.81.48,2.75,2.75,0,0,1,1,1.64A1.21,1.21,0,0,1,227.73,343.28Z" style="fill:#263238"></path><path d="M226.24,342.1c0,.14-.61.48-1.21,1.12s-.93,1.29-1.08,1.24,0-.88.7-1.61S226.21,342,226.24,342.1Z" style="fill:#263238"></path><path d="M226.24,344.14c-.13.08-.59-.42-1.27-.87s-1.31-.7-1.28-.85.8-.11,1.58.41S226.36,344.07,226.24,344.14Z" style="fill:#263238"></path><g style="opacity:0.30000000000000004"><path d="M221.8,378.29a2.8,2.8,0,0,0,1.93,3,3.11,3.11,0,0,0,3.39-1.24,3.47,3.47,0,0,0,0-3.66,3.47,3.47,0,0,1-.78,2.34,2.57,2.57,0,0,1-2.26.89,2,2,0,0,1-1.69-1.64"></path></g><circle cx="224.38" cy="377.17" r="2.76" style="fill:#e0e0e0"></circle><path d="M227.14,377.17s0-.24-.18-.65a2.87,2.87,0,0,0-1-1.4,2.61,2.61,0,0,0-2.42-.32,2.54,2.54,0,1,0,2.42,4.42,2.78,2.78,0,0,0,1-1.4,6,6,0,0,1,.18-.65s.09.25,0,.7a2.72,2.72,0,0,1-1,1.65,3,3,0,0,1-2.81.48,3,3,0,0,1,0-5.65,3,3,0,0,1,2.81.48,2.72,2.72,0,0,1,1,1.65C227.23,376.93,227.17,377.18,227.14,377.17Z" style="fill:#263238"></path><path d="M225.65,376c0,.14-.6.48-1.21,1.12s-.93,1.29-1.07,1.25,0-.88.7-1.61S225.62,375.86,225.65,376Z" style="fill:#263238"></path><path d="M225.65,378c-.12.08-.58-.43-1.26-.88s-1.32-.7-1.29-.85.81-.11,1.58.42S225.77,378,225.65,378Z" style="fill:#263238"></path><g style="opacity:0.30000000000000004"><path d="M218.25,385.08c10.82,2.35,23.46,2.44,35.15,1.87,5.62-.28,11.79-.63,16.29,2.76,1,.74,2.14,1.71,3.3,1.28,1.68-.63,1.74-3.71,3.54-3.77.9,0,1.59.83,1.88,1.68a13,13,0,0,0,.82,2.56c.46.78,1.55,1.3,2.27.75,1.14-.87-.18-2.74.25-4.11s2.47-1.53,3.85-1,2.72,1.54,4.19,1.32a8.19,8.19,0,0,0,2.83-1.45c2.63-1.61,5.88-1.7,9-1.76,3.25-.05,6.6-.36,9.85-.42Z"></path></g><path d="M292.77,349.79a2.22,2.22,0,0,1-.51.18,11.73,11.73,0,0,0-1.45.49,22,22,0,0,0-4.88,2.76c-1.95,1.36-4.1,3.24-6.83,4.9a15.6,15.6,0,0,1-4.63,1.93,26.2,26.2,0,0,1-5.34.4c-3.65,0-6.84,1.48-9.6,3s-5.29,2.84-7.26,4.17a26.22,26.22,0,0,0-4.34,3.56c-.93,1-1.36,1.55-1.4,1.52s.08-.16.28-.45a14,14,0,0,1,1-1.21,23.79,23.79,0,0,1,4.28-3.72,78,78,0,0,1,7.24-4.3,33.09,33.09,0,0,1,4.52-2.1,15.5,15.5,0,0,1,5.29-.95,26.23,26.23,0,0,0,5.25-.38,15.77,15.77,0,0,0,4.5-1.84c2.68-1.61,4.87-3.46,6.86-4.79a20.61,20.61,0,0,1,5-2.65,8.71,8.71,0,0,1,1.49-.4A2,2,0,0,1,292.77,349.79Z" style="fill:#263238"></path><path d="M269.06,357.71a13,13,0,0,1-2.9-.45,43.59,43.59,0,0,1-6.77-2.1,42.76,42.76,0,0,1-6.34-3.16,12.39,12.39,0,0,1-2.41-1.69,25.49,25.49,0,0,1,2.59,1.37,59.77,59.77,0,0,0,13,5.23A21,21,0,0,1,269.06,357.71Z" style="fill:#263238"></path><path d="M284.1,325.07c.77-.41,23.24-7.64,23.24-7.64l-21.48,12Z" style="fill:#FF725E"></path><path d="M281.76,322.64a7.6,7.6,0,0,0-7.6,7.6h15.2A7.6,7.6,0,0,0,281.76,322.64Z" style="fill:#263238"></path><path d="M205.35,394.09c-.15,0-.26-24.42-.26-54.54s.11-54.55.26-54.55.26,24.42.26,54.55S205.49,394.09,205.35,394.09Z" style="fill:#263238"></path><path d="M324.2,394.09c-.15,0-.26-24.42-.26-54.54s.11-54.55.26-54.55.26,24.42.26,54.55S324.34,394.09,324.2,394.09Z" style="fill:#263238"></path><circle cx="200.36" cy="298.63" r="1.17" style="fill:#263238"></circle><circle cx="200.36" cy="320.51" r="1.17" style="fill:#263238"></circle><circle cx="200.36" cy="342.4" r="1.17" style="fill:#263238"></circle><circle cx="200.36" cy="364.29" r="1.17" style="fill:#263238"></circle><circle cx="200.36" cy="386.17" r="1.17" style="fill:#263238"></circle><circle cx="330.31" cy="298.63" r="1.17" style="fill:#263238"></circle><circle cx="330.31" cy="320.51" r="1.17" style="fill:#263238"></circle><circle cx="330.31" cy="342.4" r="1.17" style="fill:#263238"></circle><circle cx="330.31" cy="364.29" r="1.17" style="fill:#263238"></circle><circle cx="330.31" cy="386.17" r="1.17" style="fill:#263238"></circle><rect x="234.3" y="272.27" width="51.1" height="12.04" style="fill:#455a64"></rect><path d="M238,284.32a32.12,32.12,0,0,1-.26-5.82,32,32,0,0,1,.26-5.81,33.09,33.09,0,0,1,.26,5.81A33.25,33.25,0,0,1,238,284.32Z" style="fill:#263238"></path><path d="M243.23,284.32a33.25,33.25,0,0,1-.26-5.82,33.09,33.09,0,0,1,.26-5.81,32,32,0,0,1,.26,5.81A32.12,32.12,0,0,1,243.23,284.32Z" style="fill:#263238"></path><path d="M248.48,284.32a33.25,33.25,0,0,1-.26-5.82,33.09,33.09,0,0,1,.26-5.81,33.09,33.09,0,0,1,.26,5.81A33.25,33.25,0,0,1,248.48,284.32Z" style="fill:#263238"></path><path d="M253.73,284.32a32.12,32.12,0,0,1-.26-5.82,32,32,0,0,1,.26-5.81,33.09,33.09,0,0,1,.26,5.81A33.25,33.25,0,0,1,253.73,284.32Z" style="fill:#263238"></path><path d="M259,284.32a33.25,33.25,0,0,1-.26-5.82,33.09,33.09,0,0,1,.26-5.81,32,32,0,0,1,.26,5.81A32.12,32.12,0,0,1,259,284.32Z" style="fill:#263238"></path><path d="M264.22,284.32a33.25,33.25,0,0,1-.26-5.82,33.09,33.09,0,0,1,.26-5.81,33.09,33.09,0,0,1,.26,5.81A33.25,33.25,0,0,1,264.22,284.32Z" style="fill:#263238"></path><path d="M269.47,284.32a32.12,32.12,0,0,1-.26-5.82,32,32,0,0,1,.26-5.81,33.09,33.09,0,0,1,.26,5.81A33.25,33.25,0,0,1,269.47,284.32Z" style="fill:#263238"></path><path d="M274.71,284.32a33.25,33.25,0,0,1-.26-5.82,33.09,33.09,0,0,1,.26-5.81,32,32,0,0,1,.26,5.81A32.12,32.12,0,0,1,274.71,284.32Z" style="fill:#263238"></path><path d="M280,284.32a33.25,33.25,0,0,1-.26-5.82,33.09,33.09,0,0,1,.26-5.81,33.09,33.09,0,0,1,.26,5.81A33.25,33.25,0,0,1,280,284.32Z" style="fill:#263238"></path><g style="opacity:0.30000000000000004"><path d="M345.68,310.42c1.24,6.26,2.39,12.16,3.62,18.42a26.7,26.7,0,0,1-3.62,0c0-6,0-12.41,0-18.41"></path></g><path d="M192.15,296.05c.14,0,0,18.68-.35,41.71s-.71,41.7-.86,41.7,0-18.67.34-41.71S192,296.05,192.15,296.05Z" style="fill:#fff"></path><path d="M213.89,382c-.15,0-.26-9.3-.26-20.77s.11-20.77.26-20.77.26,9.3.26,20.77S214,382,213.89,382Z" style="fill:#fff"></path><path d="M312.1,287.68c0,.15-22.93.26-51.2.26s-51.2-.11-51.2-.26,22.92-.26,51.2-.26S312.1,287.54,312.1,287.68Z" style="fill:#fff"></path></g><g id="freepik--Floor--inject-252"><path d="M462.62,475.16c0,.14-95.2.26-212.61.26s-212.63-.12-212.63-.26,95.18-.26,212.63-.26S462.62,475,462.62,475.16Z" style="fill:#263238"></path></g></svg>